<svg xmlns="http://www.w3.org/2000/svg" width="3.5804713mm" height="4.4979167mm" viewBox="0 0 3.5804713 4.4979167">
	<g transform="matrix(.26458 0 0 .26458 -.06184 0)" fill="#d1e2f5" fill-rule="evenodd">
		<circle cx="7" cy="4.5" r="4.5"/>
		<path d="M1.7567268 9.1964195C3.7165266 10.398806 5.4642843 11 7 11c1.535704 0 3.283447-.601184 5.243228-1.803553.470748-.2888448 1.086512-.1413541 1.375334.3294072.116279.1895264.166076.4124003.141522.6333938l-.661243 5.951183c-.05627.506433-.484335.889569-.993884.889569H1.8950428c-.5095492 0-.93761344-.383136-.99388374-.889569l-.66124885-5.951239c-.06095996-.5488946.33456393-1.0432995.88345529-1.1042874.2209821-.0245536.4438447.0252417.6333613.1415149z"/>
	</g>
</svg>
