<svg xmlns="http://www.w3.org/2000/svg" width="3.5483367mm" height="4.2826285mm" viewBox="0 0 3.5483367 4.2826285">
	<g fill="#d1e2f5" fill-rule="evenodd">
		<path d="M1.69808782 2.71937403L.72200995 4.1133577c-.12572106.17954827-.3731908.2231839-.55273911.09746282-.1795483-.12572108-.22318388-.37319084-.09746282-.55273911l.97412294-1.39119175z"/>
		<path d="M2.0931283 0c.80368933 0 1.45520832.65151896 1.45520832 1.45520832 0 .80368935-.65151899 1.45520831-1.45520832 1.45520831-.80368935 0-1.45520831-.65151896-1.45520831-1.45520831C.63791999.65151896 1.28943895 0 2.0931283 0zm0 .52916666c-.51143867 0-.92604165.41460298-.92604165.92604166 0 .51143867.41460298.92604165.92604165.92604165.51143879 0 .92604166-.41460298.92604166-.92604165 0-.51143868-.41460287-.92604166-.92604166-.92604166z"/>
	</g>
</svg>
