<svg xmlns="http://www.w3.org/2000/svg" width="150" height="32">
	<path fill="#FE0359"
		  d="M1.857 10.537c1.025 0 1.856.831 1.856 1.857v1.414h.089c.088-.294.317-.663.685-1.105.369-.442.84-.862 1.415-1.26a8.736 8.736 0 0 1 2.033-1.017c.781-.28 1.643-.42 2.586-.42 1.563 0 2.874.325 3.935.973 1.061.648 1.93 1.621 2.608 2.918.678-1.297 1.636-2.27 2.874-2.918 1.238-.648 2.49-.973 3.757-.973 1.621 0 2.948.266 3.98.796 1.03.53 1.841 1.23 2.43 2.1.59.87.995 1.857 1.216 2.962.221 1.105.332 2.247.332 3.426v10.213a1.99 1.99 0 1 1-3.979 0V19.82c0-.796-.051-1.562-.155-2.3-.103-.736-.316-1.384-.64-1.944a3.65 3.65 0 0 0-1.371-1.349c-.59-.339-1.37-.508-2.343-.508-1.916 0-3.286.59-4.111 1.768-.826 1.18-1.238 2.697-1.238 4.554v9.46a1.99 1.99 0 1 1-3.979 0v-8.974c0-1.002-.052-1.916-.155-2.74-.103-.826-.31-1.54-.619-2.145a3.413 3.413 0 0 0-1.326-1.415c-.575-.339-1.348-.508-2.32-.508-.708 0-1.393.14-2.056.42-.664.28-1.246.7-1.747 1.26-.5.56-.898 1.275-1.193 2.144-.295.87-.442 1.894-.442 3.073v8.886a1.99 1.99 0 1 1-3.979 0v-17.11c0-1.025.831-1.856 1.857-1.856zm37.912 10.466c0 1.06.162 2.04.486 2.938.325.898.782 1.664 1.371 2.297a6.346 6.346 0 0 0 2.167 1.502c.855.368 1.813.552 2.875.552 1.061 0 2.02-.184 2.874-.552a6.346 6.346 0 0 0 2.167-1.502c.59-.633 1.047-1.399 1.37-2.297.325-.898.487-1.878.487-2.938 0-1.06-.162-2.04-.486-2.937-.324-.899-.781-1.664-1.371-2.298a6.346 6.346 0 0 0-2.167-1.502c-.855-.368-1.813-.552-2.874-.552-1.062 0-2.02.184-2.875.552a6.346 6.346 0 0 0-2.167 1.502c-.59.634-1.046 1.4-1.37 2.298-.325.898-.487 1.877-.487 2.937zm-4.261-.025c0-1.535.287-2.966.862-4.294a11.03 11.03 0 0 1 5.899-5.865c1.354-.576 2.812-.863 4.373-.863 1.561 0 3.02.287 4.375.863a11.03 11.03 0 0 1 5.898 5.865c.574 1.328.862 2.76.862 4.294 0 1.534-.288 2.973-.862 4.316a10.858 10.858 0 0 1-2.364 3.497 11.216 11.216 0 0 1-3.534 2.346c-1.355.575-2.814.863-4.375.863-1.56 0-3.019-.288-4.374-.863a11.216 11.216 0 0 1-3.535-2.346 10.858 10.858 0 0 1-2.363-3.497c-.575-1.343-.862-2.782-.862-4.316zM63.672 0c1.098 0 1.99.89 1.99 1.99v11.527h.088c.707-1.09 1.724-1.953 3.05-2.587a9.717 9.717 0 0 1 4.244-.95c1.62 0 3.087.28 4.398.84 1.312.56 2.432 1.334 3.36 2.321.928.988 1.643 2.152 2.144 3.493.501 1.342.751 2.793.751 4.356 0 1.562-.25 3.007-.751 4.333a10.589 10.589 0 0 1-2.144 3.493 9.72 9.72 0 0 1-3.36 2.344c-1.311.56-2.777.84-4.398.84a9.762 9.762 0 0 1-4.134-.929c-1.34-.619-2.394-1.488-3.16-2.608h-.089v1.017a1.99 1.99 0 1 1-3.979 0V1.99c0-1.1.891-1.99 1.99-1.99zm9.17 28.292c1.062 0 2.02-.184 2.875-.552a6.346 6.346 0 0 0 2.167-1.502c.59-.633 1.046-1.399 1.37-2.297.325-.898.487-1.878.487-2.938 0-1.06-.162-2.04-.487-2.937-.324-.899-.78-1.664-1.37-2.298a6.346 6.346 0 0 0-2.167-1.502c-.855-.368-1.813-.552-2.875-.552-1.061 0-2.02.184-2.874.552a6.346 6.346 0 0 0-2.167 1.502c-.59.634-1.047 1.4-1.371 2.298-.324.898-.487 1.877-.487 2.937 0 1.06.163 2.04.487 2.938.324.898.781 1.664 1.37 2.297a6.346 6.346 0 0 0 2.168 1.502c.855.368 1.813.552 2.874.552zM89.835.102c1.093 0 1.979.885 1.979 1.978v27.434a1.978 1.978 0 1 1-3.957 0V2.08c0-1.093.886-1.978 1.978-1.978zm9.537 10.412c1.092 0 1.978.886 1.978 1.979v17.02a1.978 1.978 0 0 1-3.957 0v-17.02c0-1.093.886-1.979 1.979-1.979zM96.43 2.971c0-.796.287-1.482.861-2.057.575-.576 1.26-.863 2.055-.863.796 0 1.48.287 2.055.863.575.575.862 1.26.862 2.057 0 .797-.287 1.483-.862 2.058-.574.575-1.26.863-2.055.863-.795 0-1.48-.288-2.055-.863-.574-.575-.861-1.261-.861-2.058zm12.083 7.566c1.099 0 1.99.89 1.99 1.989v1.238h.088c.5-1.12 1.37-2.026 2.608-2.719 1.238-.692 2.667-1.039 4.288-1.039 1.002 0 1.967.155 2.895.465.928.309 1.739.788 2.431 1.436.693.649 1.245 1.481 1.658 2.498.412 1.017.619 2.218.619 3.603v11.495a1.99 1.99 0 1 1-3.979 0v-10.39c0-.972-.132-1.805-.398-2.497-.265-.693-.618-1.253-1.06-1.68a3.98 3.98 0 0 0-1.525-.929 5.623 5.623 0 0 0-1.79-.287c-.826 0-1.592.133-2.3.398a4.789 4.789 0 0 0-1.856 1.26c-.53.575-.943 1.304-1.238 2.188-.294.884-.442 1.93-.442 3.139v8.798a1.99 1.99 0 1 1-3.978 0V12.526c0-1.099.89-1.99 1.99-1.99zm25.072 14.403a6.221 6.221 0 0 0 1.57 1.925c.648.531 1.4.944 2.255 1.24.855.295 1.74.442 2.654.442 1.238 0 2.314-.287 3.228-.863.34-.215.754-.547 1.24-.997a2.163 2.163 0 0 1 2.784-.132 1.67 1.67 0 0 1 .079 2.588c-2.199 1.905-4.82 2.857-7.862 2.857-1.651 0-3.147-.28-4.489-.841-1.341-.56-2.477-1.335-3.405-2.324-.93-.989-1.644-2.154-2.145-3.497-.501-1.343-.752-2.796-.752-4.36 0-1.564.273-3.018.818-4.36a10.812 10.812 0 0 1 2.256-3.497c.958-.989 2.1-1.764 3.427-2.324 1.327-.561 2.771-.841 4.334-.841 1.858 0 3.428.324 4.71.973 1.283.65 2.337 1.498 3.162 2.546a10.047 10.047 0 0 1 1.791 3.541c.369 1.313.553 2.649.553 4.006 0 .782-.634 1.417-1.416 1.417H135.09a1.704 1.704 0 0 0-1.506 2.5zm11.528-8.118a5.346 5.346 0 0 0-1.125-1.922c-.5-.545-1.125-.971-1.875-1.28-.75-.31-1.625-.464-2.625-.464-.97 0-1.86.184-2.669.552a6.501 6.501 0 0 0-3.353 3.4 1.537 1.537 0 0 0 1.413 2.143h8.493a1.838 1.838 0 0 0 1.741-2.43z"/>
</svg>
