<svg xmlns="http://www.w3.org/2000/svg" width="29.725937mm" height="6.3499999mm" viewBox="0 0 29.725937 6.3499999">
	<path d="M.07926917 2.0856186H.6570855c.04377918 0 .07926917.03553738.07926917.079375v.56993417h.01753235c.01753227-.05849673.06282346-.13161634.13587489-.21936125.07305143-.08774491.16655584-.17110133.28051606-.25007176.11396022-.07897042.24837284-.1462405.40324185-.20181228.15486901-.05557179.3258068-.08335724.51281843-.08335724.30973804 0 .56979713.06434529.78018533.19303782.2103882.12869254.38278699.32172844.5172014.57911346.13441469-.25738502.32434557-.45042092.56979846-.57911346.24545264-.12869253.49382389-.19303782.74512064-.19303782.3214264 0 .58440742.05264615.7889515.15794005.20454408.10529387.36525464.24422124.48213698.41678624.11688233.172565.1972376.36852574.24106848.58788807.04383088.21936207.06574605.446033.06574605.68001964V6.1653316c0 .0438375-.03549015.079375-.07926917.079375h-.63041317c-.04377928 0-.07926917-.0355375-.07926917-.079375V3.92825256c0-.1579409-.01022614-.31002975-.03068134-.4562713-.02045494-.14624156-.06282373-.27493225-.12710901-.38607577s-.1548675-.20034937-.27174984-.26762048c-.11688233-.0672711-.27174904-.10090626-.46460488-.10090626-.37986732 0-.6516145.1169916-.81524977.35097799-.16363526.23398638-.24545157.53523938-.24545157.90376797v2.1932069c0 .04383748-.03548989.079375-.07926917.079375h-.63041318c-.04377901 0-.0792689-.03553752-.0792689-.079375V4.06864364c0-.19888835-.01022614-.3802253-.0306816-.5440156-.02045442-.16379058-.06136244-.3056427-.12272574-.42556086-.0613632-.1199179-.1490236-.21351107-.26298382-.28078218-.11396022-.0672711-.26736593-.10090626-.46022167-.10090626-.14025874 0-.27613236.02778548-.40762493.08335724-.13149255.05557176-.24691208.13892821-.346262.25007173-.09934994.11114352-.1782443.2529959-.23668543.42556085-.05844117.17256496-.08766128.37583745-.08766128.6098241V6.1653316c0 .0438375-.03549001.079375-.07926916.079375H.07926917C.03549 6.2447066 0 6.2091691 0 6.1653316v-4.000338c0-.04383762.03549001-.079375.07926917-.079375zm7.81024537 2.079544c0 .21058768.03214211.40508607.0964274.58350069.06428501.17841463.1548675.33050347.27174983.4562713.11688233.12576758.2600608.22521043.42954019.2983312.16947938.07312078.35941026.10968064.56979819.10968064.2103882 0 .40031907-.03655986.56979846-.10968063.16947911-.07312078.31265785-.17256363.42954018-.2983312.11688234-.12576784.20746456-.27785668.27174984-.45627131.06428528-.17841462.0964274-.372913.0964274-.5835007s-.03214212-.40508607-.0964274-.5835007c-.06428528-.17841462-.1548675-.33050347-.27174984-.4562713-.11688233-.12576757-.26006107-.22521069-.42954018-.2983312-.16947939-.07312078-.35941026-.10968064-.56979846-.10968064-.21038793 0-.40031881.03655986-.5697982.10968064-.16947938.07312051-.31265785.17256363-.42954018.2983312-.11688234.12576783-.20746482.27785668-.27174984.4562713-.06428528.17841463-.0964274.372913-.0964274.5835007zm-.8415483 0c0-.30418247.05697935-.5878867.17093936-.85112145.11396027-.26323475.27028801-.49429273.46898797-.69318129.1986997-.19888845.43246093-.35536451.70129003-.4694329.26882936-.11406838.55810863-.17110172.86784655-.17110172.30973818 0 .59901745.05703334.86784655.17110172.26882936.11406839.50259032.27054445.70129029.4694329.19869996.19888856.3550277.42994654.46898797.69318129.11396001.26323474.17093935.54693898.17093935.85112144 0 .30418246-.05697934.58934905-.17093935.8555085-.11396027.26615972-.270288.4972177-.46898797.69318134s-.43246093.35097746-.70129029.46504568c-.2688291.1140685-.55810837.17110181-.86784655.17110181-.30973792 0-.59901719-.05703332-.86784655-.1711018-.2688291-.11406823-.50259033-.26908205-.70129003-.46504569-.19869996-.19596364-.3550277-.42702162-.46898797-.69318134-.11396001-.26615945-.17093935-.55132604-.17093935-.8555085zM12.31678265 0h.63041317c.04377902 0 .07926917.0355374.07926917.079375v2.60290598h.01753129c.1402588-.21643742.34187764-.38753743.6048629-.51330513.26298524-.1257677.54349834-.18865061.84154828-.18865061.32142615 0 .61216645.05557094.87222964.16671448.26006293.11114357.48213592.26469485.66622559.4606585.18408967.19596353.32580712.42702178.4251571.69318123.09934998.26615972.14902418.55425101.14902418.86428314 0 .31003187-.0496742.59666108-.14902418.85989582-.09934998.26323475-.24106743.49429273-.4251571.69318134-.18408967.19888835-.40616266.35390217-.66622559.46504568-.2600624.11114352-.5508027.16671449-.87222884.16671449-.2805176 0-.55372582-.06142064-.81963312-.1842635-.26590704-.12284287-.47483104-.29540518-.62677807-.51769221h-.01753129v.5172874c0 .04383748-.03549015.079375-.07926916.079375h-.63041397c-.04377928 0-.07926917-.03553752-.07926917-.079375V.079375c0-.0438376.03548989-.079375.07926917-.079375zm2.1419325 5.61294643c.21038819 0 .40031907-.03655986.56979845-.10968063.16947912-.07312078.31265786-.17256363.42954019-.2983312.11688233-.12576784.20746455-.27785668.27174983-.45627131.06428528-.17841462.0964274-.372913.0964274-.5835007s-.03214212-.40508607-.0964274-.5835007c-.06428528-.17841462-.1548675-.33050347-.27174983-.4562713-.11688233-.12576757-.26006107-.22521069-.42954019-.2983312-.16947938-.07312078-.35941026-.10968064-.56979846-.10968064-.21038793 0-.4003188.03655986-.56979819.10968064-.16947938.07312051-.31265786.17256363-.42954019.2983312-.11688233.12576783-.20746455.27785668-.27174983.4562713-.06428529.17841463-.0964274.372913-.0964274.5835007s.03214211.40508608.0964274.5835007c.06428528.17841463.1548675.33050347.27174983.4562713.11688233.12576758.2600608.22521043.42954019.2983312.16947938.07312078.35941026.10968064.5697982.10968064zm3.0563809-5.59809802h.63041317c.04377902 0 .07926917.0355374.07926917.079375v6.0711082c0 .04383748-.03549015.079375-.07926917.079375h-.63041317c-.04377902 0-.07926917-.03553752-.07926917-.079375V.0942234c0-.0438376.03549015-.079375.07926917-.079375zm1.88471728 2.0707702h.63041317c.04377928 0 .07926917.03553737.07926917.079375v4.000338c0 .04383748-.03548989.079375-.07926917.079375h-.63041317c-.04377902 0-.07926917-.03553752-.07926917-.079375v-4.000338c0-.04383763.03549015-.079375.07926917-.079375zM19.13645554.59396259c0-.15794085.05697934-.29394343.17093935-.4080118.11396027-.11406839.24983387-.17110173.40762502-.17110173.15779114 0 .29366474.05703334.40762501.17110172.11396028.11406838.17093935.25007096.17093935.4080118 0 .15794083-.05697907.29394341-.17093935.4080118-.11396027.11406837-.24983387.17110172-.40762501.17110172-.15779115 0-.29366475-.05703335-.40762502-.17110173-.11396-.11406838-.17093935-.25007096-.17093935-.40801178zM21.2231679 2.0856186h.6304129c.04377929 0 .07926917.03553737.07926917.079375v.56115952h.0175313c.09934998-.22228699.27174877-.40216137.5172014-.5396284.2454529-.13746702.52888832-.2061995.85031447-.2061995.19869996 0 .3900916.03071025.57418128.0921317.18408967.06142144.34480023.156477.48213697.28516953.13733674.12869254.24691234.293943.3287297.49575632.08181764.20181332.12272593.44018332.12272593.71511741V6.1653316c0 .0438375-.03549015.079375-.07926917.079375h-.63041317c-.04377902 0-.07926917-.0355375-.07926917-.079375V3.78786147c0-.19303894-.02629694-.35828922-.07889504-.4957564-.05259705-.13746691-.1227254-.24860885-.21038714-.33342897-.08766175-.08482012-.18847118-.1462405-.30243145-.1842635-.11396027-.03802274-.23230178-.05703385-.35502797-.05703385-.16363526 0-.31557991.0263234-.4558387.07897019-.1402588.05264679-.2629834.13600324-.36817724.25007172-.1051941.11406823-.18701067.25884532-.24545157.43433497-.05844117.17548992-.08766149.38314974-.08766149.6229858V6.1653316c0 .0438375-.03548988.079375-.07926916.079375h-.63041291c-.04377928 0-.07926917-.0355375-.07926917-.079375v-4.000338c0-.04383762.03548989-.079375.07926917-.079375zm5.17164101 2.3691008c0 .18133933.039447.34658988.1183431.49575614.0788961.14916652.182626.2763946.31119762.38168844.12856898.10529385.2775929.18718794.44707175.24568467.16947885.0584962.3447997.0877443.52596784.0877443.24545396 0 .4587584-.05703332.63992654-.17110154.11137106-.07012252.26166762-.20366143.45088703-.40061673.0279453-.02908909.07324196-.03254534.10526713-.00803275l.47187378.361188c.03478213.02662263.04142581.07643812.01484313.11126575-.00132292.00185208-.00288396.00362479-.00447146.00533929-.47841429.52424356-1.07292245.78636494-1.78351919.78636494-.32727106 0-.62385574-.05557097-.88976199-.16671449-.26590624-.11114351-.49090261-.26469498-.67499229-.46065862-.18408967-.19596338-.32580712-.42702162-.4251571-.69318108-.09934998-.26615971-.14902418-.55425127-.14902418-.86428314 0-.31003213.05405729-.59812342.16217344-.86428314.1081159-.26615945.25713875-.4972177.44707228-.69318123.18993379-.19596365.41638934-.34951493.67937458-.4606585.26298525-.11114354.54934379-.16671448.8590809-.16671448.3681783 0 .67937327.06434529.93359287.19303782.2542196.12869254.46314254.29686777.62677674.5045306.16363686.20766298.28197704.44164593.3550285.70195597.07305146.26030978.10957719.52500292.10957719.79408734v.20140744c0 .0438375-.03549121.079375-.07926917.079375zm2.4800827-.72024398c-.02061105-.1785858-.04519613-.3099562-.07378171-.39411089-.04967552-.14624156-.12418483-.27346962-.22353587-.38168844-.0993484-.10821882-.22353588-.19303762-.3725598-.25445905-.1490239-.06142135-.32288426-.09213162-.5215837-.09213162-.19285478 0-.36963878.03655986-.53035199.10968064-.1607132.07312025-.29658733.1681763-.40762501.2851695-.11103769.1169932-.1972363.24714623-.2586011.39046282-.0340876.07961471-.0610743.19138397-.08096012.33530751-.00600075.04342421.0242914.08349641.06765687.0895043.00359833.00050272.00722312.00074084.01087437.00074084h2.31173335c.0437806 0 .07926916-.03553724.07926916-.079375 0-.0030427-.00017462-.00608541-.00052916-.0091096z"
		  fill="rgb(254, 3, 89)"/>
</svg>
