<?xml version="1.0" standalone="no"?>
<!DOCTYPE svg PUBLIC "-//W3C//DTD SVG 20010904//EN"
		"http://www.w3.org/TR/2001/REC-SVG-20010904/DTD/svg10.dtd">
<svg version="1.0" xmlns="http://www.w3.org/2000/svg"
	 width="700.000000pt" height="700.000000pt" viewBox="0 0 700.000000 700.000000"
	 preserveAspectRatio="xMidYMid meet">
	<metadata>
		Created by potrace 1.11, written by Peter Selinger 2001-2013
	</metadata>
	<g transform="translate(0.000000,700.000000) scale(0.100000,-0.100000)"
	   fill="#000000" stroke="none">
		<path d="M2348 5575 c-2 -1 -30 -5 -63 -8 -257 -26 -538 -140 -768 -314 -82
-61 -195 -172 -254 -248 -43 -56 -94 -150 -86 -158 3 -4 1 -7 -5 -7 -15 0 -13
-16 -16 185 -3 165 -4 172 -33 235 -104 227 -387 285 -568 118 -61 -56 -99
-126 -111 -203 -9 -60 -9 -3384 0 -3438 8 -52 52 -142 89 -184 66 -75 165
-123 264 -128 145 -7 272 57 350 179 59 93 56 36 59 1070 2 1034 4 1087 40
1270 34 169 114 363 205 497 52 77 170 196 246 247 179 122 368 174 603 167
74 -2 146 -6 160 -9 143 -31 199 -52 280 -107 195 -131 311 -363 345 -689 3
-30 8 -68 10 -85 14 -113 18 -355 20 -1230 1 -544 5 -1003 9 -1020 15 -56 71
-149 110 -185 107 -98 253 -131 386 -88 84 27 179 107 219 186 44 87 44 77 46
1167 2 572 5 1051 8 1065 3 14 8 46 11 71 11 78 16 101 41 195 70 260 203 468
371 580 76 50 205 104 289 120 11 2 31 6 45 9 60 14 84 16 235 19 88 2 185 0
215 -6 30 -5 68 -11 84 -14 58 -11 174 -62 235 -103 218 -148 323 -368 357
-746 3 -38 7 -83 9 -100 2 -16 4 -502 5 -1080 0 -1118 -1 -1085 48 -1181 32
-62 110 -134 182 -167 209 -95 458 20 524 244 15 48 16 169 16 1119 -1 977 -3
1180 -14 1280 -2 19 -7 69 -11 110 -4 41 -9 78 -11 82 -3 4 -7 26 -10 50 -5
36 -14 84 -39 199 -11 54 -73 217 -112 298 -130 267 -323 462 -580 586 -127
61 -126 61 -208 84 -270 76 -630 88 -880 31 -27 -6 -57 -13 -65 -15 -97 -22
-364 -142 -458 -207 -158 -109 -301 -262 -397 -427 l-37 -63 -37 64 c-49 83
-111 174 -152 223 -59 69 -174 179 -220 210 -24 16 -46 33 -49 36 -3 4 -44 27
-91 53 -130 70 -279 120 -416 141 -23 3 -57 8 -75 11 -36 6 -345 14 -350 9z"/>
	</g>
</svg>
